<svg width="611" height="190" viewBox="0 0 611 190" fill="none" xmlns="http://www.w3.org/2000/svg">
<path fill-rule="evenodd" clip-rule="evenodd" d="M156.626 45.5727L161.115 34.643C161.115 34.643 155.455 28.5927 148.526 21.6641C141.597 14.8331 127.057 18.8341 127.057 18.8341L110.37 0H52.0134L35.3261 18.8341C35.3261 18.8341 20.6882 14.8331 13.8572 21.6641C6.92861 28.4951 1.26861 34.5455 1.26861 34.5455L5.75757 45.4751L0 61.6744C0 61.6744 16.7848 124.813 18.7365 132.619C22.5424 147.843 25.1772 153.698 36.2044 161.407C47.134 169.117 67.0416 182.486 70.2619 184.535C73.4823 186.487 77.5809 190 81.1916 190C84.8023 190 88.9009 186.487 92.1212 184.535C95.3416 182.486 115.249 169.117 126.179 161.407C137.108 153.698 139.743 147.843 143.647 132.619C145.598 124.91 162.286 61.772 162.286 61.772L156.528 45.5727H156.626Z" fill="url(#paint0_linear_2194_3298)"/>
<path d="M101.878 34.2539C104.317 34.2539 122.371 30.7408 122.371 30.7408C122.371 30.7408 143.742 56.5035 143.742 62.0659C143.742 67.6283 141.888 68.409 139.741 70.5559L138.277 72.0197L122.273 88.9996L121.785 89.4876C120.126 91.1465 117.882 93.4886 119.541 97.392L119.834 98.1727C121.688 102.467 123.835 107.736 121.005 113.006C117.98 118.666 112.71 122.472 109.392 121.789C106.074 121.105 98.1696 117.007 95.3396 115.153C92.5096 113.299 83.3365 105.784 83.3365 102.857C83.3365 99.9293 89.8747 96.4162 93.0951 94.4645L94.5589 93.5862L96.1203 92.6103C99.0478 90.7562 104.317 87.5358 104.415 86.0721C104.61 84.2179 104.513 83.73 102.171 79.3386L100.512 76.3134C98.2671 72.5076 95.7299 68.2138 96.3154 65.0911C96.9985 61.578 102.463 59.6262 107.05 57.8697C109.197 57.089 111.441 56.3083 113.588 55.43C118.175 53.6735 123.347 51.7218 124.225 51.429C125.396 50.8435 125.103 50.3556 121.493 49.9652H119.736C115.345 49.3797 107.245 48.5014 103.244 49.5749L100.707 50.258C96.2178 51.429 90.8506 52.8928 90.2651 53.7711L90.0699 54.1614C89.582 54.8445 89.1916 55.3325 89.7772 58.3576L90.753 63.2369C91.9241 69.58 93.8758 79.5338 94.0709 81.7783V82.7541C94.4613 85.1938 94.6565 86.8527 91.8265 87.5358L91.0458 87.731C87.7279 88.5117 82.9461 89.6827 81.2872 89.6827C77.6765 89.2924 74.1634 88.6093 70.7479 87.6334C67.8203 86.9503 68.0155 85.2914 68.4058 82.7541V81.8759C68.6986 79.6314 70.6503 69.6776 71.8213 63.2369L72.7972 58.4552C73.3827 55.43 72.9924 54.9421 72.5044 54.259L72.3092 53.8687C71.8213 52.9904 66.3565 51.5266 61.8675 50.3556L59.3303 49.6725C55.4269 48.599 47.2296 49.4773 42.8383 49.8676L41.0817 50.0628C37.5686 50.3556 37.2759 50.8435 38.4469 51.429C39.3252 51.8194 44.3997 53.6735 49.0838 55.43L53.9631 57.2842L55.622 57.8697C60.2086 59.6262 65.6734 61.578 66.3565 64.9935C66.8444 68.1162 64.4048 72.41 62.1603 76.3134L60.5013 79.3386C58.1593 83.73 58.1593 84.3155 58.2569 86.0721C58.2569 87.5358 63.6241 90.7562 66.5517 92.6103L68.1131 93.5862L69.5769 94.562C72.7972 96.5138 79.3355 100.417 79.3355 102.857C79.3355 105.297 70.1624 113.299 67.3324 115.153C64.5024 117.104 56.5979 121.105 53.28 121.789C49.962 122.374 44.6924 118.568 41.6672 112.908C38.8372 107.541 41.0817 102.271 42.8383 98.0752L43.131 97.2944C44.79 93.391 42.4479 91.049 40.8865 89.39L40.3986 88.9021L24.2969 71.8245L22.9307 70.4583C20.7838 68.409 18.9297 66.5549 18.9297 61.9683C18.9297 57.3818 40.301 30.6432 40.301 30.6432C40.301 30.6432 58.2569 34.0587 60.7941 34.0587C63.3313 34.0587 66.4541 32.7901 70.3575 31.4239L73.3827 30.448C76.0175 29.4722 78.7499 28.9842 81.4823 28.7891C81.4823 28.7891 84.7027 28.7891 89.582 30.448L92.6071 31.4239C96.5106 32.8877 100.219 34.0587 102.268 34.0587L101.878 34.2539Z" fill="white"/>
<path d="M98.7565 125.495C102.562 127.446 105.295 128.813 106.368 129.496C107.734 130.374 106.856 131.838 105.685 132.716C104.514 133.594 88.3148 146.183 86.7535 147.452L86.0704 148.037C84.509 149.403 82.6549 151.16 81.2887 151.16C79.9224 151.16 77.9707 149.403 76.5069 148.037L75.8238 147.452C74.2625 145.988 58.0632 133.497 56.8921 132.716C55.6235 131.838 54.8428 130.276 56.209 129.398C57.2825 128.813 59.9173 127.446 63.8207 125.397L67.4314 123.543C73.189 120.615 80.3128 118.078 81.3862 118.078C82.4597 118.078 89.5835 120.615 95.341 123.543L98.9517 125.495H98.7565Z" fill="white"/>
<path d="M235.475 64.1106C240.647 61.4758 246.307 60.2072 252.064 60.3048C266.214 60.2072 279.193 68.1117 285.536 80.7978C289.049 87.9216 290.806 95.7285 290.611 103.633C290.611 112.318 288.952 119.93 285.536 126.566C282.413 132.909 277.632 138.276 271.679 142.082C265.824 145.79 258.993 147.644 252.064 147.547C246.307 147.644 240.647 146.376 235.475 143.838C230.693 141.301 226.985 138.081 224.155 134.08V146.083H202.783V33.2734H224.155V74.0644C227.082 69.8682 230.888 66.4527 235.475 64.1106ZM265.726 90.3613C260.066 79.822 246.794 75.821 236.255 81.5785C232.449 83.6278 229.327 86.7506 227.277 90.654C225.228 94.4599 224.155 98.8513 224.155 103.926C224.155 109 225.228 113.489 227.277 117.197C229.327 121.003 232.059 123.833 235.475 125.785C242.208 129.786 250.6 129.786 257.334 125.785C260.847 123.638 263.677 120.711 265.629 117.1C267.678 113.294 268.751 108.903 268.751 103.633C268.751 98.3633 267.678 94.0695 265.629 90.4588L265.726 90.3613ZM329.157 64.2082C333.548 61.671 338.623 60.4024 344.381 60.4024V82.8471H338.623C331.987 82.8471 326.913 84.4085 323.497 87.6289C320.082 90.7516 318.423 96.2164 318.423 104.023V146.18H297.051V61.671H318.423V74.7475C321.057 70.3561 324.766 66.7454 329.157 64.2082ZM352.09 80.8954C355.213 74.6499 359.994 69.3803 365.947 65.672C371.9 62.0613 378.633 60.2072 385.562 60.3048C396.491 60.1096 406.836 65.0865 413.471 73.7717V61.7686H434.94V146.18H413.471V133.787C410.544 137.983 406.64 141.301 402.054 143.643C396.882 146.278 391.222 147.644 385.367 147.547C378.243 147.547 371.802 145.693 365.849 141.984C359.897 138.178 355.115 132.811 352.09 126.468C348.674 119.832 346.918 112.221 346.918 103.535C346.918 94.8502 348.674 87.4337 351.992 80.7978L352.09 80.8954ZM410.446 90.5564C406.64 83.3351 399.224 78.9437 391.027 79.0413C383.025 79.0413 375.706 83.4327 371.9 90.4588C369.85 94.1671 368.777 98.5585 368.777 103.633C368.777 108.707 369.85 113.196 371.9 117.002C373.949 120.808 376.682 123.736 380.097 125.785C383.415 127.737 387.123 128.81 391.027 128.81C394.833 128.81 398.736 127.834 402.151 125.785C405.665 123.736 408.495 120.808 410.349 117.197C412.3 113.489 413.374 109.098 413.374 103.828C413.374 98.5585 412.3 94.1671 410.349 90.4588L410.446 90.5564ZM485.002 126.468L506.373 61.671H529.111L497.883 146.083H471.926L440.796 61.671H463.631L485.002 126.468ZM610.01 110.269H548.238C548.726 116.319 550.873 121.198 554.581 124.614C558.387 128.127 563.364 129.981 568.438 129.884C576.343 129.884 582.003 126.468 585.32 119.637H608.351C606.009 127.639 601.129 134.763 594.396 139.74C586.979 145.107 578.001 147.937 568.926 147.547C560.826 147.547 553.507 145.693 547.067 142.082C540.626 138.569 535.454 133.202 531.941 126.761C528.233 119.735 526.379 111.83 526.574 103.926C526.574 95.2406 528.33 87.4337 531.941 80.8954C535.356 74.4548 540.528 69.1851 546.872 65.672C553.605 61.9637 561.217 60.1096 568.926 60.3048C577.221 60.3048 584.149 62.0613 590.493 65.5744C596.738 68.8923 601.812 74.0644 605.228 80.2123C608.839 86.9458 610.693 94.4599 610.498 102.072C610.498 105.097 610.302 107.927 609.912 110.269H610.01ZM588.443 95.9237C588.443 90.8492 586.394 86.0675 582.49 82.7496C578.587 79.4316 573.513 77.6751 568.34 77.7727C562.973 77.7727 558.582 79.3341 554.971 82.5544C551.165 86.0675 548.823 90.7516 548.335 95.9237H588.443Z" fill="#1B1B1A"/>
<defs>
<linearGradient id="paint0_linear_2194_3298" x1="0.097586" y1="94.9512" x2="162.286" y2="94.9512" gradientUnits="userSpaceOnUse">
<stop stop-color="#EA581D"/>
<stop offset="0.5" stop-color="#E8461D"/>
<stop offset="1" stop-color="#E63020"/>
</linearGradient>
</defs>
</svg>
