<svg width="1005" height="190" viewBox="0 0 1005 190" fill="none" xmlns="http://www.w3.org/2000/svg">
<path fill-rule="evenodd" clip-rule="evenodd" d="M702.982 38.95C687.782 38.95 676.382 44.65 670.682 54.15L667.832 59.85V41.8H643.132V152H669.732V86.45C669.732 71.25 678.282 61.75 693.482 61.75C707.732 61.75 715.332 70.3 715.332 85.5V152H741.932V80.75C740.982 55.1 726.732 38.95 702.982 38.95ZM574.732 38.95C543.382 38.95 524.382 58.9 524.382 90.25V105.45C524.382 135.85 544.332 153.9 575.682 153.9C596.582 153.9 611.782 146.3 620.332 130.15L604.182 120.65C597.532 130.15 586.132 135.85 575.682 135.85C559.532 135.85 550.032 126.35 550.032 109.25V104.5H624.132V86.45C623.182 57.95 604.182 38.95 574.732 38.95ZM599.432 88.35H550.032V85.5C550.032 67.45 558.582 57 574.732 57C589.932 57 599.432 66.5 599.432 83.6V88.35ZM1004.13 23.75V2.84999H912.932V23.75H945.232V131.1H912.932V152H1004.13V131.1H971.832V23.75H1004.13ZM309.682 0C268.832 0 243.182 25.65 243.182 66.5V88.35C243.182 129.2 268.832 154.85 309.682 154.85C350.532 154.85 376.182 129.2 376.182 88.35V66.5C376.182 25.65 350.532 0 309.682 0ZM348.632 90.25C348.632 117.8 334.382 133 309.682 133C284.982 133 270.732 117.8 270.732 90.25V64.6C270.732 37.05 284.982 21.85 309.682 21.85C334.382 21.85 348.632 37.05 348.632 64.6V90.25ZM459.782 39.9C445.532 39.9 434.132 45.6 427.482 55.1L424.632 58.9V41.8H399.932V190H426.532V136.8L429.382 140.6C435.082 149.15 447.432 154.85 460.732 154.85C483.532 154.85 506.332 139.65 506.332 106.4V87.4C505.382 63.65 491.132 38.95 459.782 39.9ZM478.782 105.45C478.782 123.5 468.332 133.95 452.182 133.95C436.982 133.95 425.582 122.55 425.582 105.45V89.3C425.582 72.2 436.032 60.8 452.182 60.8C468.332 60.8 478.782 72.2 478.782 89.3V105.45ZM814.132 2.84999L760.932 152H787.532L797.982 119.7H859.732L870.182 151.05H896.782L843.582 1.90001L814.132 2.84999ZM804.632 98.8L828.382 23.75L852.132 98.8H804.632ZM174.782 77.9C179.532 64.6 177.632 50.35 170.982 38.95C160.532 20.9 139.632 11.4 119.682 16.15C108.282 3.80001 91.1817 -1.90001 74.0817 0.949986C56.9817 4.74999 43.6817 17.1 37.9817 33.25C24.6817 36.1 13.2817 44.65 6.63173 56.05C-3.81827 74.1 -1.91827 96.9 12.3317 112.1C7.58173 125.4 9.48173 139.65 16.1317 151.05C26.5817 169.1 47.4817 178.6 67.4317 173.85C76.9317 184.3 89.2817 190 103.532 190C124.432 190 142.482 176.7 149.132 156.75C162.432 153.9 173.832 145.35 180.482 133.95C190.932 115.9 189.032 93.1 174.782 77.9ZM103.532 177.65C94.9817 177.65 87.3817 174.8 80.7317 169.1L81.6817 168.15L119.682 146.3C121.582 145.35 122.532 143.45 122.532 140.6V87.4L138.682 96.9V141.55C138.682 161.5 123.482 177.65 103.532 177.65ZM26.5817 144.4C22.7817 136.8 20.8817 129.2 22.7817 120.65L23.7317 121.6L61.7317 143.45C63.6317 144.4 65.5317 144.4 68.3817 143.45L114.932 116.85V134.9C114.932 134.9 114.932 134.9 114.932 135.85L76.9317 157.7C58.8817 167.2 37.0317 161.5 26.5817 144.4ZM17.0817 62.7C20.8817 55.1 27.5317 50.35 36.0817 47.5V92.15C36.0817 94.05 37.0317 95.95 38.9317 97.85L84.5317 124.45L68.3817 133.95C68.3817 133.95 68.3817 133.95 67.4317 133.95L29.4317 112.1C13.2817 100.7 7.58173 78.85 17.0817 62.7ZM148.182 93.1L102.582 66.5L118.732 57C118.732 57 118.732 57 119.682 57L157.682 78.85C170.032 85.5 176.682 98.8 175.732 113.05C174.782 126.35 165.282 138.7 152.932 143.45V98.8C151.982 95.95 150.082 94.05 148.182 93.1ZM164.332 69.35L163.382 68.4L125.382 46.55C123.482 45.6 120.632 45.6 118.732 46.55L73.1317 73.15V55.1C73.1317 55.1 73.1317 55.1 73.1317 54.15L111.132 32.3C123.482 25.65 137.732 25.65 149.132 34.2C160.532 41.8 166.232 55.1 164.332 69.35ZM64.5817 101.65L48.4317 92.15V47.5C48.4317 33.25 56.0317 20.9 69.3317 15.2C81.6817 9.49999 96.8817 11.4 107.332 19.95L106.382 20.9L68.3817 42.75C66.4817 43.7 65.5317 45.6 65.5317 48.45L64.5817 101.65ZM73.1317 82.65L94.0317 71.25L114.932 82.65V106.4L94.0317 117.8L73.1317 106.4V82.65Z" fill="black"/>
</svg>
