<svg width="628" height="191" viewBox="0 0 628 191" fill="none" xmlns="http://www.w3.org/2000/svg">
<path d="M77.5156 1.11106C82.7018 -0.79055 88.4931 1.62968 90.8269 6.72946C112.609 52.9732 134.218 99.1304 155.827 145.461C158.507 151.165 155.136 158.685 148.999 160.241C115.894 170.095 82.7018 179.949 49.51 189.803C45.534 191.272 41.0392 190.235 37.9275 187.296C36.1123 185.049 34.47 182.628 33.0006 180.122C22.7146 164.131 12.4286 148.054 2.14266 131.976C-0.277576 128.433 -0.450446 123.765 1.88335 120.135C25.1349 82.1888 48.4728 44.243 71.8108 6.29727C73.1937 4.22279 74.9225 1.97543 77.5156 1.11106ZM82.0967 26.3506C71.9836 74.8417 61.957 123.333 51.9303 171.91C50.7202 174.936 54.3505 177.615 57.1165 176.146C85.0356 167.848 113.041 159.636 140.96 151.165C143.121 150.733 144.418 148.572 143.986 146.498C143.899 146.066 143.726 145.72 143.553 145.374C124.969 105.008 105.78 64.9015 87.1965 24.5355C85.3813 23.6711 82.356 23.844 82.0967 26.3506Z" fill="#123A50"/>
<path d="M339.333 147.88H358.954V75.7917H339.333V147.88ZM338.469 57.2078C338.469 50.8114 342.013 47.6133 349.187 47.6133C356.361 47.6133 359.905 50.8114 359.905 57.2078C359.905 60.2331 359.041 62.6533 357.226 64.2956C355.41 65.9379 352.731 66.8023 349.187 66.8887C342.099 66.8023 338.555 63.6041 338.469 57.2078ZM608.152 114.429L600.545 114.688C594.84 114.861 590.605 115.898 587.753 117.8C584.987 119.702 583.604 122.554 583.604 126.444C583.604 131.976 586.802 134.742 593.112 134.742C597.693 134.742 601.323 133.445 604.003 130.852C606.769 128.259 608.065 124.715 608.065 120.393L608.152 114.429ZM613.943 147.88L610.14 138.113H609.621C606.337 142.262 602.879 145.2 599.422 146.756C595.964 148.312 591.383 149.177 585.765 149.177C578.85 149.177 573.404 147.189 569.428 143.212C565.452 139.236 563.464 133.618 563.464 126.357C563.464 118.751 566.143 113.046 571.503 109.416C576.862 105.785 584.9 103.797 595.705 103.365L608.238 102.933V99.8211C608.238 92.5604 604.521 88.8437 597.001 88.8437C591.21 88.8437 584.468 90.5724 576.689 94.0299L570.206 80.7186C578.763 76.3103 588.185 74.063 597.779 74.2358C607.46 74.2358 614.894 76.3103 619.994 80.5457C625.18 84.7811 627.773 91.1775 627.773 99.7347V147.794H613.943V147.88ZM506.07 147.88H486.449V105.785C486.449 100.599 485.584 96.7094 483.856 94.1163C482.127 91.5232 479.361 90.2266 475.644 90.2266C470.631 90.2266 467 92.0418 464.667 95.7586C462.419 99.4754 461.209 105.526 461.209 113.997V147.88H441.502V75.7917H456.628L459.221 85.0404H460.345C462.333 81.6694 465.272 78.9899 468.729 77.2611C472.619 75.3595 476.941 74.4087 481.262 74.4951C492.067 74.4951 499.328 78.0391 503.131 85.0404H504.86C506.848 81.6694 509.873 78.9034 513.417 77.2611C517.393 75.3595 521.715 74.4087 526.123 74.4951C534.248 74.4951 540.472 76.5696 544.621 80.805C548.77 85.0404 550.931 91.6961 550.931 100.945V147.88H531.223V105.785C531.223 100.599 530.359 96.7094 528.63 94.1163C526.901 91.5232 524.135 90.2266 520.418 90.2266C515.578 90.2266 512.034 91.9554 509.614 95.4129C507.194 98.8703 506.07 104.316 506.07 111.749V147.88ZM420.497 143.385C425.597 139.496 428.19 133.877 428.19 126.53C428.277 123.332 427.672 120.22 426.375 117.281C424.992 114.602 423.004 112.268 420.584 110.453C417.991 108.465 413.842 106.39 408.223 104.057C401.913 101.55 397.764 99.6483 395.949 98.3517C394.048 97.0552 393.183 95.4993 393.183 93.7706C393.183 90.6588 396.122 89.103 401.913 89.103C405.198 89.103 408.396 89.6216 411.508 90.5724C414.62 91.5232 417.991 92.8197 421.621 94.3756L427.585 80.2C419.633 76.4832 410.989 74.5816 402.259 74.4951C393.183 74.4951 386.096 76.2239 381.169 79.7678C376.242 83.3117 373.735 88.2386 373.735 94.6349C373.649 97.9195 374.254 101.118 375.55 104.057C376.847 106.736 378.835 109.07 381.255 110.885C383.848 112.873 387.911 115.034 393.443 117.368C397.332 119.01 400.358 120.48 402.691 121.69C404.507 122.554 406.149 123.678 407.618 124.974C408.569 126.012 409.088 127.308 409.001 128.777C409.001 132.926 405.457 135.001 398.283 135.001C394.221 134.914 390.158 134.309 386.182 133.272C381.947 132.235 377.798 130.766 373.822 128.95V145.2C377.193 146.583 380.65 147.621 384.194 148.312C388.602 149.09 393.097 149.436 397.592 149.349C407.705 149.177 415.398 147.189 420.497 143.385ZM328.874 75.1002C326.713 74.668 324.466 74.4951 322.219 74.4951C317.81 74.4951 313.575 75.7917 309.945 78.2119C306.141 80.6322 303.03 84.0032 300.869 87.9793H299.918L296.979 75.8781H282.112V147.88H301.733V111.231C301.733 105.44 303.462 100.945 307.006 97.6602C310.55 94.4621 315.39 92.8198 321.7 92.8198C323.688 92.8198 325.59 92.9926 327.491 93.4248L328.874 75.1002ZM224.199 98.006H230.769C236.906 98.006 241.487 96.7958 244.598 94.3756C247.624 91.9554 249.18 88.4115 249.18 83.7439C249.18 79.0763 247.883 75.6188 245.376 73.3715C242.87 71.1241 238.807 70.0004 233.362 70.0004H224.286V98.006H224.199ZM269.319 83.0524C269.319 93.1655 266.121 100.945 259.811 106.304C253.501 111.663 244.426 114.343 232.757 114.343H224.199V147.88H204.232V53.6639H234.312C245.722 53.6639 254.452 56.0841 260.416 61.011C266.381 65.9379 269.319 73.285 269.319 83.0524Z" fill="#123A50"/>
</svg>
