<svg width="823" height="190" viewBox="0 0 823 190" fill="none" xmlns="http://www.w3.org/2000/svg">
<path d="M139.732 0V17.2631H19.331V153.324H0V0H139.732Z" fill="black"/>
<path d="M139.73 32.7383V50.0014H55.8309V153.325H36.4883V32.7383H139.73Z" fill="black"/>
<path d="M139.729 65.3594V82.7154H92.3308V153.325H72.9766V65.3594H139.729Z" fill="black"/>
<path d="M194.772 63.6758C217.785 63.6758 237.116 78.9408 237.116 107.322C237.116 109.204 237.116 110.795 236.919 113.665H167.785C168.679 128.047 180.285 137.561 194.865 137.561C207.156 137.561 215.404 131.903 219.946 124.178L234.735 134.692C226.8 147.192 213.127 155.115 194.679 155.115C168.006 155.115 148.768 136.167 148.768 109.401C148.861 83.5179 168.099 63.6874 194.795 63.6874M168.807 99.48H217.704C215.613 86.7824 205.413 79.9398 194.098 79.9398C182.783 79.9398 171.386 86.4803 168.807 99.48Z" fill="black"/>
<path d="M256.752 65.3602H276.083V77.1516C281.043 70.1116 291.755 63.6641 304.348 63.6641C328.453 63.6641 346.692 84.2033 346.692 109.378C346.692 134.552 328.442 155.091 304.348 155.091C291.65 155.091 280.939 148.551 276.083 141.499V190.001H256.752V65.3486V65.3602ZM300.874 81.2177C285.202 81.2177 274.491 93.5086 274.491 109.389C274.491 125.27 285.214 137.561 300.874 137.561C316.534 137.561 327.048 125.27 327.048 109.389C327.048 93.5086 316.325 81.2177 300.874 81.2177Z" fill="black"/>
<path d="M385.772 21.4219H366.441V153.219H385.772V21.4219Z" fill="black"/>
<path d="M421.494 46.2278C414.454 46.2278 408.506 40.4773 408.506 33.2398C408.506 26.0022 414.454 20.4492 421.494 20.4492C428.534 20.4492 434.284 26.2927 434.284 33.2398C434.284 40.1868 428.72 46.2278 421.494 46.2278ZM411.875 65.3613H431.206V153.234H411.875V65.3613Z" fill="black"/>
<path d="M497.262 155.009C470.88 155.009 450.852 135.272 450.852 109.296C450.852 83.3196 470.891 63.582 497.262 63.582C515.408 63.582 530.685 73.3056 538.224 87.8736L521.368 97.0047C517.104 88.0827 508.577 81.5306 497.262 81.5306C481.591 81.5306 470.589 93.6357 470.589 109.296C470.589 124.956 481.695 137.061 497.262 137.061C508.461 137.061 517.093 130.52 521.368 121.587L538.224 130.718C530.685 145.39 515.304 155.009 497.262 155.009Z" fill="black"/>
<path d="M591.976 63.6758C604.673 63.6758 615.175 70.2162 620.147 77.1633V65.3719H639.478V153.244H620.147V141.453C615.187 148.493 604.673 155.045 591.976 155.045C567.87 155.045 549.631 134.506 549.631 109.331C549.631 84.1569 567.881 63.7106 591.976 63.7106M595.542 81.241C579.87 81.241 569.368 93.5319 569.368 109.413C569.368 125.293 579.882 137.584 595.542 137.584C611.202 137.584 621.715 125.293 621.715 109.413C621.715 93.5319 611.109 81.241 595.542 81.241Z" fill="black"/>
<path d="M672.599 153.326V82.6241H654.244V65.361H672.599V40.9648H691.942V65.361H725.248V82.6241H691.942V135.97H725.248V153.326H672.599Z" fill="black"/>
<path d="M780.408 63.6758C803.422 63.6758 822.753 78.9408 822.753 107.322C822.753 109.204 822.753 110.795 822.556 113.665H753.422C754.316 128.047 765.922 137.561 780.501 137.561C792.792 137.561 801.041 131.903 805.583 124.178L820.371 134.692C812.437 147.192 798.764 155.115 780.315 155.115C753.642 155.115 734.404 136.167 734.404 109.401C734.602 83.5179 753.735 63.6874 780.432 63.6874M754.432 99.48H803.329C801.238 86.7824 791.038 79.9398 779.723 79.9398C768.408 79.9398 757.116 86.4803 754.432 99.48Z" fill="black"/>
</svg>
